<?xml version="1.0" encoding="UTF-8" standalone="no"?>
<!-- Created with Inkscape (http://www.inkscape.org/) -->

<svg
   xmlns:dc="http://purl.org/dc/elements/1.1/"
   xmlns:cc="http://creativecommons.org/ns#"
   xmlns:rdf="http://www.w3.org/1999/02/22-rdf-syntax-ns#"
   xmlns:svg="http://www.w3.org/2000/svg"
   xmlns="http://www.w3.org/2000/svg"
   xmlns:sodipodi="http://sodipodi.sourceforge.net/DTD/sodipodi-0.dtd"
   xmlns:inkscape="http://www.inkscape.org/namespaces/inkscape"
   width="210mm"
   height="297mm"
   viewBox="0 0 744.09448819 1052.3622047"
   id="svg2"
   version="1.1"
   inkscape:version="0.91 r13725"
   inkscape:export-filename="/tmp/bt.png"
   inkscape:export-xdpi="29.349859"
   inkscape:export-ydpi="29.349859"
   sodipodi:docname="bt_logo.svg">
  <defs
     id="defs4" />
  <sodipodi:namedview
     id="base"
     pagecolor="#ffffff"
     bordercolor="#666666"
     borderopacity="1.0"
     inkscape:pageopacity="0"
     inkscape:pageshadow="2"
     inkscape:zoom="1.7981587"
     inkscape:cx="401.7999"
     inkscape:cy="796.77194"
     inkscape:document-units="px"
     inkscape:current-layer="layer1"
     showgrid="false"
     inkscape:window-width="1920"
     inkscape:window-height="1016"
     inkscape:window-x="0"
     inkscape:window-y="27"
     inkscape:window-maximized="1" />
  <metadata
     id="metadata7">
    <rdf:RDF>
      <cc:Work
         rdf:about="">
        <dc:format>image/svg+xml</dc:format>
        <dc:type
           rdf:resource="http://purl.org/dc/dcmitype/StillImage" />
        <dc:title></dc:title>
      </cc:Work>
    </rdf:RDF>
  </metadata>
  <g
     inkscape:label="Layer 1"
     inkscape:groupmode="layer"
     id="layer1">
    <text
       xml:space="preserve"
       style="font-style:normal;font-weight:bold;font-size:40px;line-height:178%;font-family:Sans;letter-spacing:0px;word-spacing:0px;fill:#000000;fill-opacity:1;stroke:none;stroke-width:1px;stroke-linecap:butt;stroke-linejoin:miter;stroke-opacity:1;-inkscape-font-specification:'Sans Bold';font-stretch:normal;font-variant:normal;"
       x="212.8125"
       y="123.79078"
       id="text4136"
       sodipodi:linespacing="171%"
       inkscape:export-xdpi="27.1"
       inkscape:export-ydpi="27.1"
       inkscape:export-filename="/tmp/bt.png"><tspan
         sodipodi:role="line"
         id="tspan4138"
         x="135.23438"
         y="123.79078"
         style="text-anchor:middle;text-align:center;line-height:171%;-inkscape-font-specification:Analecta;font-family:Analecta;font-weight:normal;font-style:normal;font-stretch:normal;font-variant:normal;font-size:35px">BLITZ</tspan><tspan
         sodipodi:role="line"
         x="135.23438"
         y="173.79077"
         id="tspan4140"
         style="text-align:center;text-anchor:middle;line-height:171%;-inkscape-font-specification:Analecta;font-family:Analecta;font-weight:normal;font-style:normal;font-stretch:normal;font-variant:normal;font-size:35px">type</tspan></text>
    <path
       style="fill:#2b0000;fill-opacity:1;stroke:#000000;stroke-width:1.39999998;stroke-miterlimit:4;stroke-dasharray:none;stroke-dashoffset:0;stroke-opacity:1"
       id="path4152"
       d="m 167.24777,152.13213 c 0.96656,-0.94245 1.91336,-1.9048 2.86654,-2.86068 0.63355,-0.6383 1.2666,-1.27711 1.90365,-1.91191 2.40729,-2.57264 6.01582,-3.56221 8.94787,-5.4447 -2.23982,1.2929 -4.47785,2.5889 -6.71944,3.87872 -0.14445,0.0831 0.28488,-0.17302 0.42792,-0.25854 0.40601,-0.24275 0.80519,-0.50216 1.21286,-0.74079 2.47383,-1.44804 4.95485,-2.88374 7.43227,-4.32561 0.86326,-0.38979 1.71981,-0.79371 2.57279,-1.20549 1.05994,-0.43185 2.17827,-0.82714 3.30179,-1.07256 1.05201,-0.21988 2.04888,-0.62482 3.1206,-0.75099 1.02244,-0.18381 2.01689,-0.45328 3.05845,-0.55012 1.12637,0.02 2.20093,-0.24359 3.3035,-0.41424 0.96149,-0.18034 1.93712,-0.22757 2.91265,-0.2506 0.84368,0.0144 1.659,0.32528 2.49699,0.45354 0.68561,-0.0342 1.24252,0.25427 1.87238,0.45378 0.67384,0.20101 1.231,0.68263 1.74665,1.14491 0.44961,0.55798 1.10569,0.87382 1.60922,1.35688 0.38895,0.43825 0.63126,1.01122 0.86537,1.54725 0.1816,0.42314 0.47891,0.78705 0.73415,1.17523 0.39598,0.5631 0.64739,1.22291 0.886,1.86532 0.23582,0.64714 0.50661,1.28666 0.80321,1.90896 0.19559,0.52272 0.51927,0.93288 0.82458,1.38203 0.28238,0.49352 0.65896,0.91926 1.03616,1.34079 0.45932,0.46619 1.05417,0.76526 1.56406,1.1792 0.51933,0.34909 1.05708,0.73654 1.63601,0.98522 0.71826,0.24336 1.5205,0.20828 2.27399,0.22483 1.10113,0.0151 2.20232,0.001 3.30347,0.009 1.29166,0.12654 2.5341,-0.14603 3.80393,-0.29871 1.53627,-0.17001 3.02698,-0.60548 4.50366,-1.04538 1.54514,-0.47922 3.04521,-1.09057 4.56976,-1.63076 1.63413,-0.65005 3.25504,-1.37312 4.82328,-2.17405 1.68198,-0.80277 3.31949,-1.69906 5.00204,-2.50021 0.26985,-0.12654 0.54259,-0.24708 0.80954,-0.37962 0.28831,-0.14315 0.57138,-0.29662 0.85584,-0.44726 0.26792,-0.14188 1.06389,-0.5818 0.80129,-0.4303 -11.11381,6.41174 -7.1615,4.19673 -4.78437,2.61951 3.92031,-2.61987 16.84712,-9.53905 2.61689,-1.57286 -0.19023,0.10649 0.36048,-0.24532 0.53816,-0.37165 0.18857,-0.13407 0.37365,-0.27299 0.56048,-0.40949 3.22186,-2.30927 6.71186,-4.23616 10.22252,-6.06782 2.75228,-1.43067 0.85168,-0.45215 -6.01895,3.4866 -0.14613,0.0838 0.29125,-0.16934 0.435,-0.25712 0.39789,-0.24295 0.76885,-0.50975 1.14063,-0.79015 0.3886,-0.32267 0.20599,-0.16663 0.54907,-0.46667 0,0 7.669,-3.13018 7.669,-3.13018 l 0,0 c -0.35053,0.32518 -0.16563,0.15531 -0.55523,0.50903 -2.79815,2.50809 -6.43648,3.90476 -9.62866,5.80841 -2.79845,1.56289 -0.28786,0.16448 5.96198,-3.45964 0.18452,-0.107 -0.37383,0.20568 -0.55772,0.31377 -0.15735,0.0925 -0.92935,0.57359 -1.06485,0.66451 -0.17343,0.11638 -0.34012,0.24251 -0.51018,0.36376 -0.37002,0.26678 -0.70273,0.58775 -1.0943,0.82175 -2.5368,1.51596 -5.09897,2.98909 -7.6536,4.47481 -0.21367,0.12426 -0.86424,0.48003 -0.65103,0.35499 2.09723,-1.22997 4.19471,-2.45964 6.30336,-3.66992 0.21894,-0.12566 -0.42213,0.27697 -0.63319,0.41546 -3.75269,2.47986 -7.62769,4.79417 -11.69545,6.71973 -1.66265,0.84436 -3.33205,1.67318 -5.00286,2.50123 -1.60476,0.76182 -3.21698,1.52598 -4.89455,2.11481 -1.52128,0.56021 -3.0348,1.15048 -4.59808,1.58597 -1.51079,0.42668 -3.03779,0.80611 -4.60294,0.97024 -1.2873,0.19784 -2.57295,0.26029 -3.87586,0.21454 -1.11295,0.0121 -2.22665,0.0141 -3.33921,-0.0198 -0.85661,-0.0391 -1.74226,-0.0745 -2.5082,-0.50531 -0.58723,-0.34333 -1.18577,-0.67919 -1.71111,-1.1144 -0.56783,-0.409 -1.18948,-0.76134 -1.64236,-1.30647 -0.40528,-0.44274 -0.80161,-0.90028 -1.10873,-1.41834 -0.34793,-0.47651 -0.63833,-0.95398 -0.8711,-1.49927 -0.3265,-0.63923 -0.58506,-1.32485 -0.83929,-1.99399 -0.20697,-0.582 -0.45358,-1.16774 -0.80567,-1.677 -0.29107,-0.42052 -0.62215,-0.83919 -0.80815,-1.31431 -0.17795,-0.42593 -0.37576,-0.8848 -0.67796,-1.23035 -0.55217,-0.42686 -1.08925,-0.86225 -1.58913,-1.35188 -0.48295,-0.38553 -0.97682,-0.72672 -1.58679,-0.87733 -0.58404,-0.21139 -1.18386,-0.24808 -1.79329,-0.3606 -0.78724,-0.16646 -1.56843,-0.40183 -2.38253,-0.31318 -0.94882,0.0496 -1.89312,0.14719 -2.82788,0.32249 -1.10282,0.20564 -2.2111,0.28011 -3.32607,0.39047 -1.02122,0.17217 -2.02066,0.44142 -3.04665,0.58717 -1.02676,0.24398 -2.03467,0.55775 -3.06304,0.79607 -1.08903,0.34352 -2.19415,0.66172 -3.20842,1.19704 -0.85699,0.41127 -1.73149,0.79285 -2.55445,1.27011 2.22741,-1.29754 4.44768,-2.60741 6.68223,-3.89263 0.13308,-0.0765 -0.25059,0.17743 -0.37622,0.26567 -0.40249,0.28268 -0.81759,0.52085 -1.24264,0.76752 -2.47215,1.43471 -4.94413,2.8697 -7.4162,4.30454 -2.52315,1.30364 -5.73637,3.32898 5.97805,-3.51019 0.1938,-0.11315 -0.41395,0.18379 -0.59239,0.31987 -0.10185,0.0777 -0.18176,0.1805 -0.27264,0.27076 -0.64141,0.64372 -1.28694,1.28333 -1.93182,1.92357 -0.95116,0.94849 -1.90891,1.89048 -2.84656,2.85241 0,0 -7.63008,3.16048 -7.63008,3.16048 z"
       inkscape:connector-curvature="0"
       inkscape:export-filename="/tmp/bt.png"
       inkscape:export-xdpi="27.1"
       inkscape:export-ydpi="27.1" />
    <path
       style="fill:#2b0000;fill-opacity:1;stroke:#000000;stroke-width:1.39999998;stroke-miterlimit:4;stroke-dasharray:none;stroke-dashoffset:0;stroke-opacity:1"
       id="path4154"
       d="m 190.35085,157.98499 c -1.07964,0.32073 -2.16359,0.61036 -3.26666,0.83739 -0.34588,0.0665 -0.18598,0.0373 -0.47949,0.0889 0,0 6.63092,-5.00456 6.63092,-5.00456 l 0,0 c 0.26891,-0.052 0.12167,-0.0229 0.44156,-0.0879 1.08572,-0.2367 2.15025,-0.55628 3.21551,-0.87076 0,0 -6.54184,5.0369 -6.54184,5.0369 z"
       inkscape:connector-curvature="0"
       inkscape:export-filename="/tmp/bt.png"
       inkscape:export-xdpi="27.1"
       inkscape:export-ydpi="27.1" />
    <path
       style="fill:#2b0000;fill-opacity:1;stroke:#000000;stroke-width:1.39999998;stroke-miterlimit:4;stroke-dasharray:none;stroke-dashoffset:0;stroke-opacity:1"
       id="path4156"
       d="m 225.9765,141.40776 c 0.29839,-0.31304 -1.66811,0.86998 -1.25986,0.63619 2.15318,-1.23304 8.60559,-4.94453 6.4551,-3.70682 -2.88995,1.66331 -5.52219,3.34382 -8.42703,4.7809 -3.1377,1.56133 9.31044,-5.57896 6.16222,-3.54455 0,0 -7.71769,3.06253 -7.71769,3.06253 l 0,0 c 2.38191,-1.98188 5.24774,-3.29401 8.01135,-4.68715 0.26656,-0.13808 1.05532,-0.57255 0.79583,-0.4216 -2.16363,1.25868 -8.68282,4.98541 -6.49919,3.76175 2.99285,-1.67712 5.79711,-3.6645 8.95374,-4.99811 0,0 -6.47447,5.11686 -6.47447,5.11686 z"
       inkscape:connector-curvature="0"
       inkscape:export-filename="/tmp/bt.png"
       inkscape:export-xdpi="27.1"
       inkscape:export-ydpi="27.1" />
    <rect
       style="fill:#2b0000;fill-opacity:0;stroke:none;stroke-width:1.39999998;stroke-linejoin:miter;stroke-miterlimit:4;stroke-dasharray:none;stroke-dashoffset:0;stroke-opacity:1"
       id="rect4158"
       width="119.56676"
       height="98.990143"
       x="154.04646"
       y="94.715935"
       ry="13.787336"
       inkscape:export-filename="/tmp/bt.png"
       inkscape:export-xdpi="27.1"
       inkscape:export-ydpi="27.1" />
    <text
       xml:space="preserve"
       style="font-style:normal;font-weight:normal;font-size:40px;line-height:124.00000095%;font-family:Sans;letter-spacing:0px;word-spacing:0px;fill:#000000;fill-opacity:1;stroke:none;stroke-width:1px;stroke-linecap:butt;stroke-linejoin:miter;stroke-opacity:1"
       x="102.88301"
       y="238.75215"
       id="text4349"
       sodipodi:linespacing="124%"><tspan
         sodipodi:role="line"
         id="tspan4351"
         x="102.88301"
         y="238.75215">ic louncher:</tspan></text>
    <rect
       style="fill:#ffffff;fill-opacity:1;fill-rule:nonzero;stroke:none;stroke-width:7;stroke-linecap:square;stroke-linejoin:miter;stroke-miterlimit:4;stroke-dasharray:none;stroke-dashoffset:0;stroke-opacity:1"
       id="rect4357"
       width="263.04684"
       height="239.13351"
       x="101.77078"
       y="230.41028"
       ry="34.942928" />
    <text
       xml:space="preserve"
       style="font-style:normal;font-variant:normal;font-weight:bold;font-stretch:normal;font-size:44.07561874px;line-height:177.99999714%;font-family:Sans;-inkscape-font-specification:'Sans Bold';letter-spacing:0px;word-spacing:0px;fill:#000000;fill-opacity:1;stroke:none;stroke-width:1px;stroke-linecap:butt;stroke-linejoin:miter;stroke-opacity:1"
       x="219.48265"
       y="304.16833"
       id="text4136-4"
       sodipodi:linespacing="178%"
       inkscape:export-xdpi="108.39"
       inkscape:export-ydpi="108.39"
       inkscape:export-filename="/tmp/ic_launcher_144.png"
       transform="scale(0.90753137,1.1018903)"><tspan
         sodipodi:role="line"
         id="tspan4138-4"
         x="219.48265"
         y="304.16833"
         style="font-style:normal;font-variant:normal;font-weight:normal;font-stretch:normal;font-size:38.56613541px;line-height:171.00000381%;font-family:Analecta;-inkscape-font-specification:Analecta;text-align:center;text-anchor:middle">BLITZ</tspan><tspan
         sodipodi:role="line"
         x="219.48265"
         y="370.14386"
         id="tspan4140-4"
         style="font-style:normal;font-variant:normal;font-weight:normal;font-stretch:normal;font-size:38.56613541px;line-height:171.00000381%;font-family:Analecta;-inkscape-font-specification:Analecta;text-align:center;text-anchor:middle">type</tspan></text>
    <path
       style="fill:#2b0000;fill-opacity:1;stroke:#000000;stroke-width:1.542647;stroke-miterlimit:4;stroke-dasharray:none;stroke-dashoffset:0;stroke-opacity:1"
       id="path4152-4"
       d="m 153.62273,369.57077 c 0.96656,-1.14385 1.91336,-2.31184 2.86654,-3.47336 0.63355,-0.77398 1.2666,-1.55059 1.90365,-2.32107 2.40729,-3.12384 6.01582,-4.32541 8.94787,-6.6107 -2.23982,1.57062 -4.47785,3.14434 -6.71944,4.70976 -0.14445,0.10387 0.28488,-0.21118 0.42792,-0.31366 0.40601,-0.29575 0.80519,-0.61028 1.21286,-0.89979 2.47383,-1.75756 4.95485,-3.50066 7.43227,-5.25205 0.86326,-0.47247 1.71981,-0.96331 2.57279,-1.46413 1.05994,-0.52301 2.17827,-1.0031 3.30179,-1.30152 1.05201,-0.26652 2.04888,-0.75838 3.1206,-0.91211 1.02244,-0.22409 2.01689,-0.5508 3.05845,-0.66884 1.12637,0.02 2.20093,-0.29447 3.3035,-0.50116 0.96149,-0.22062 1.93712,-0.27633 2.91265,-0.30572 0.84368,0.0144 1.659,0.39524 2.49699,0.55106 0.68561,-0.0342 1.24252,0.30939 1.87238,0.5513 0.67384,0.24341 1.231,0.82891 1.74665,1.39083 0.44961,0.6767 1.10569,1.06038 1.60922,1.64732 0.38895,0.53153 0.63126,1.22746 0.86537,1.87797 0.1816,0.5143 0.47891,0.95453 0.73415,1.42751 0.39598,0.68394 0.64739,1.48367 0.886,2.26388 0.23582,0.78494 0.50661,1.56226 0.80321,2.31812 0.19559,0.63508 0.51927,1.13216 0.82458,1.67883 0.28238,0.5974 0.65896,1.1143 1.03616,1.62699 0.45932,0.56583 1.05417,0.9285 1.56406,1.43148 0.51933,0.42329 1.05708,0.89524 1.63601,1.19722 0.71826,0.29424 1.5205,0.2528 2.27399,0.27147 1.10113,0.0151 2.20232,10e-4 3.30347,0.009 1.29166,0.1541 2.5341,-0.17783 3.80393,-0.36231 1.53627,-0.20605 3.02698,-0.7348 4.50366,-1.2701 1.54514,-0.58098 3.04521,-1.32377 4.56976,-1.97844 1.63413,-0.78997 3.25504,-1.6678 4.82328,-2.64045 1.68198,-0.97449 3.31949,-2.0637 5.00204,-3.03445 0.26985,-0.1541 0.54259,-0.30008 0.80954,-0.4623 0.28831,-0.17283 0.57138,-0.36022 0.85584,-0.54266 0.26792,-0.17156 1.06389,-0.70688 0.80129,-0.52146 -11.11381,7.78338 -7.1615,5.09349 -4.78437,3.17919 3.92031,-3.18167 16.84712,-11.58061 2.61689,-1.90994 -0.19023,0.12981 0.36048,-0.29832 0.53816,-0.45009 0.18857,-0.16375 0.37365,-0.33235 0.56048,-0.49853 3.22186,-2.80323 6.71186,-5.14352 10.22252,-7.36738 2.75228,-1.73595 0.85168,-0.54755 -6.01895,4.23496 -0.14613,0.104 0.29125,-0.2075 0.435,-0.31224 0.39789,-0.29595 0.76885,-0.61999 1.14063,-0.95975 0.3886,-0.39263 0.20599,-0.20267 0.54907,-0.56631 0,0 7.669,-3.80222 7.669,-3.80222 l 0,0 c -0.35053,0.39514 -0.16563,0.18923 -0.55523,0.61927 -2.79815,3.04445 -6.43648,4.74004 -9.62866,7.05285 -2.79845,1.89785 -0.28786,0.1984 5.96198,-4.20164 0.18452,-0.13032 -0.37383,0.2502 -0.55772,0.38161 -0.15735,0.11233 -0.92935,0.69655 -1.06485,0.80655 -0.17343,0.14182 -0.34012,0.29339 -0.51018,0.4422 -0.37002,0.32402 -0.70273,0.71283 -1.0943,0.99771 -2.5368,1.84032 -5.09897,3.62933 -7.6536,5.43305 -0.21367,0.1497 -0.86424,0.58179 -0.65103,0.43131 2.09723,-1.49497 4.19471,-2.98752 6.30336,-4.45644 0.21894,-0.15322 -0.42213,0.33633 -0.63319,0.5045 -3.75269,3.00986 -7.62769,5.82025 -11.69545,8.15921 -1.66265,1.02456 -3.33205,2.03146 -5.00286,3.03547 -1.60476,0.92506 -3.21698,1.85458 -4.89455,2.56849 -1.52128,0.68105 -3.0348,1.3964 -4.59808,1.92517 -1.51079,0.51784 -3.03779,0.97995 -4.60294,1.178 -1.2873,0.24024 -2.57295,0.31753 -3.87586,0.26118 -1.11295,0.0121 -2.22665,0.0141 -3.33921,-0.0198 -0.85661,-0.0391 -1.74226,-0.0957 -2.5082,-0.61343 -0.58723,-0.41753 -1.18577,-0.82547 -1.71111,-1.35377 -0.56783,-0.49611 -1.18948,-0.92378 -1.64236,-1.58613 -0.40528,-0.53639 -0.80161,-1.09272 -1.10873,-1.72187 -0.34793,-0.57827 -0.63833,-1.1575 -0.8711,-1.81939 -0.3265,-0.77703 -0.58506,-1.60893 -0.83929,-2.42223 -0.20697,-0.70639 -0.45358,-1.4179 -0.80567,-2.03528 -0.29107,-0.51168 -0.62215,-1.01939 -0.80815,-1.59627 -0.17795,-0.51709 -0.37576,-1.07348 -0.67796,-1.49323 -0.55217,-0.51802 -1.08925,-1.04669 -1.58913,-1.64232 -0.48295,-0.46821 -0.97682,-0.88148 -1.58679,-1.0642 -0.58404,-0.25772 -1.18386,-0.30163 -1.79329,-0.43873 -0.78724,-0.2025 -1.56843,-0.48713 -2.38253,-0.37979 -0.94882,0.0517 -1.89312,0.17782 -2.82788,0.39122 -1.10282,0.25016 -2.2111,0.33958 -3.32607,0.47458 -1.02122,0.2089 -2.02066,0.53539 -3.04665,0.71294 -1.02676,0.29596 -2.03467,0.67647 -3.06304,0.96567 -1.08903,0.41772 -2.19415,0.80376 -3.20842,1.45356 -0.85699,0.50031 -1.73149,0.96245 -2.55445,1.54261 2.22741,-1.57595 4.44768,-3.16611 6.68223,-4.72693 0.13308,-0.0977 -0.25059,0.21559 -0.37622,0.32291 -0.40249,0.34416 -0.81759,0.63321 -1.24264,0.93288 -2.47215,1.74178 -4.94413,3.48385 -7.4162,5.22562 -2.52315,1.58248 -5.73637,4.04242 5.97805,-4.26167 0.1938,-0.13786 -0.41395,0.22265 -0.59239,0.38771 -0.10185,0.0989 -0.18176,0.21919 -0.27264,0.32958 -0.64141,0.78178 -1.28694,1.55735 -1.93182,2.33539 -0.95116,1.15201 -1.90891,2.2954 -2.84656,3.46297 0,0 -7.63008,3.83676 -7.63008,3.83676 z"
       inkscape:connector-curvature="0"
       inkscape:export-filename="/tmp/ic_launcher_144.png"
       inkscape:export-xdpi="108.39"
       inkscape:export-ydpi="108.39" />
    <path
       style="fill:#2b0000;fill-opacity:1;stroke:#000000;stroke-width:1.542647;stroke-miterlimit:4;stroke-dasharray:none;stroke-dashoffset:0;stroke-opacity:1"
       id="path4154-7"
       d="m 176.72581,376.67655 c -1.07964,0.39069 -2.16359,0.7418 -3.26666,1.01759 -0.34588,0.0877 -0.18598,0.0373 -0.47949,0.10909 0,0 6.63092,-6.07548 6.63092,-6.07548 l 0,0 c 0.26891,-0.0708 0.12167,-0.0229 0.44156,-0.10819 1.08572,-0.28758 2.15025,-0.67712 3.21551,-1.05732 0,0 -6.54184,6.11386 -6.54184,6.11386 z"
       inkscape:connector-curvature="0"
       inkscape:export-filename="/tmp/ic_launcher_144.png"
       inkscape:export-xdpi="108.39"
       inkscape:export-ydpi="108.39" />
    <path
       style="fill:#2b0000;fill-opacity:1;stroke:#000000;stroke-width:1.542647;stroke-miterlimit:4;stroke-dasharray:none;stroke-dashoffset:0;stroke-opacity:1"
       id="path4156-6"
       d="m 212.35146,356.55044 c 0.29839,-0.38088 -1.66811,1.05654 -1.25986,0.77187 2.15318,-1.49592 8.60559,-6.00241 6.4551,-4.4997 -2.88995,2.01947 -5.52219,4.05826 -8.42703,5.80486 -3.1377,1.89417 9.31044,-6.77464 6.16222,-4.30351 0,0 -7.71769,3.71761 -7.71769,3.71761 l 0,0 c 2.38191,-2.40588 5.24774,-3.99997 8.01135,-5.69203 0.26656,-0.16776 1.05532,-0.69339 0.79583,-0.51064 -2.16363,1.52792 -8.68282,6.05177 -6.49919,4.56735 2.99285,-2.03752 5.79711,-4.4489 8.95374,-6.06871 0,0 -6.47447,6.2129 -6.47447,6.2129 z"
       inkscape:connector-curvature="0"
       inkscape:export-filename="/tmp/ic_launcher_144.png"
       inkscape:export-xdpi="108.39"
       inkscape:export-ydpi="108.39" />
    <rect
       style="fill:#2b0000;fill-opacity:0;stroke:none;stroke-width:1.39999998;stroke-linejoin:miter;stroke-miterlimit:4;stroke-dasharray:none;stroke-dashoffset:0;stroke-opacity:1"
       id="rect4158-3"
       width="119.56676"
       height="120.19014"
       x="140.42142"
       y="299.85727"
       ry="16.740105"
       inkscape:export-filename="/tmp/ic_launcher_144.png"
       inkscape:export-xdpi="108.39"
       inkscape:export-ydpi="108.39" />
    <rect
       style="fill-opacity:0;fill-rule:nonzero;stroke:none;stroke-width:7;stroke-linecap:square;stroke-linejoin:miter;stroke-miterlimit:4;stroke-dasharray:none;stroke-dashoffset:0;stroke-opacity:1"
       id="rect4353"
       width="210.21504"
       height="174.06696"
       x="115.11776"
       y="282.68597"
       ry="16.740101" />
    <rect
       style="fill-opacity:0;fill-rule:nonzero;stroke:none;stroke-width:7;stroke-linecap:square;stroke-linejoin:miter;stroke-miterlimit:4;stroke-dasharray:none;stroke-dashoffset:0;stroke-opacity:1"
       id="rect4355"
       width="121.23513"
       height="48.382828"
       x="224.67427"
       y="279.34924"
       ry="16.740101" />
  </g>
</svg>
