<?xml version="1.0" encoding="UTF-8" standalone="no"?>
<!-- Created with Inkscape (http://www.inkscape.org/) -->

<svg
   xmlns:dc="http://purl.org/dc/elements/1.1/"
   xmlns:cc="http://creativecommons.org/ns#"
   xmlns:rdf="http://www.w3.org/1999/02/22-rdf-syntax-ns#"
   xmlns:svg="http://www.w3.org/2000/svg"
   xmlns="http://www.w3.org/2000/svg"
   xmlns:sodipodi="http://sodipodi.sourceforge.net/DTD/sodipodi-0.dtd"
   xmlns:inkscape="http://www.inkscape.org/namespaces/inkscape"
   width="210mm"
   height="297mm"
   viewBox="0 0 744.09448819 1052.3622047"
   id="svg2"
   version="1.1"
   inkscape:version="0.91 r13725"
   inkscape:export-filename="/tmp/bt.png"
   inkscape:export-xdpi="29.349859"
   inkscape:export-ydpi="29.349859"
   sodipodi:docname="bt_logo.svg">
  <defs
     id="defs4" />
  <sodipodi:namedview
     id="base"
     pagecolor="#ffffff"
     bordercolor="#666666"
     borderopacity="1.0"
     inkscape:pageopacity="0.0"
     inkscape:pageshadow="2"
     inkscape:zoom="1.7981587"
     inkscape:cx="401.7999"
     inkscape:cy="853.14843"
     inkscape:document-units="px"
     inkscape:current-layer="layer1"
     showgrid="false"
     inkscape:window-width="1920"
     inkscape:window-height="1016"
     inkscape:window-x="0"
     inkscape:window-y="27"
     inkscape:window-maximized="1" />
  <metadata
     id="metadata7">
    <rdf:RDF>
      <cc:Work
         rdf:about="">
        <dc:format>image/svg+xml</dc:format>
        <dc:type
           rdf:resource="http://purl.org/dc/dcmitype/StillImage" />
        <dc:title></dc:title>
      </cc:Work>
    </rdf:RDF>
  </metadata>
  <g
     inkscape:label="Layer 1"
     inkscape:groupmode="layer"
     id="layer1">
    <text
       xml:space="preserve"
       style="font-style:normal;font-weight:bold;font-size:40px;line-height:178%;font-family:Sans;letter-spacing:0px;word-spacing:0px;fill:#000000;fill-opacity:1;stroke:none;stroke-width:1px;stroke-linecap:butt;stroke-linejoin:miter;stroke-opacity:1;-inkscape-font-specification:'Sans Bold';font-stretch:normal;font-variant:normal;"
       x="212.8125"
       y="123.79078"
       id="text4136"
       sodipodi:linespacing="171%"
       inkscape:export-xdpi="27.1"
       inkscape:export-ydpi="27.1"
       inkscape:export-filename="/tmp/bt.png"><tspan
         sodipodi:role="line"
         id="tspan4138"
         x="135.23438"
         y="123.79078"
         style="text-anchor:middle;text-align:center;line-height:171%;-inkscape-font-specification:Analecta;font-family:Analecta;font-weight:normal;font-style:normal;font-stretch:normal;font-variant:normal;font-size:35px">BLITZ</tspan><tspan
         sodipodi:role="line"
         x="135.23438"
         y="173.79077"
         id="tspan4140"
         style="text-align:center;text-anchor:middle;line-height:171%;-inkscape-font-specification:Analecta;font-family:Analecta;font-weight:normal;font-style:normal;font-stretch:normal;font-variant:normal;font-size:35px">type</tspan></text>
    <path
       style="fill:#2b0000;fill-opacity:1;stroke:#000000;stroke-width:1.39999998;stroke-miterlimit:4;stroke-dasharray:none;stroke-dashoffset:0;stroke-opacity:1"
       id="path4152"
       d="m 167.24777,152.13213 c 0.96656,-0.94245 1.91336,-1.9048 2.86654,-2.86068 0.63355,-0.6383 1.2666,-1.27711 1.90365,-1.91191 2.40729,-2.57264 6.01582,-3.56221 8.94787,-5.4447 -2.23982,1.2929 -4.47785,2.5889 -6.71944,3.87872 -0.14445,0.0831 0.28488,-0.17302 0.42792,-0.25854 0.40601,-0.24275 0.80519,-0.50216 1.21286,-0.74079 2.47383,-1.44804 4.95485,-2.88374 7.43227,-4.32561 0.86326,-0.38979 1.71981,-0.79371 2.57279,-1.20549 1.05994,-0.43185 2.17827,-0.82714 3.30179,-1.07256 1.05201,-0.21988 2.04888,-0.62482 3.1206,-0.75099 1.02244,-0.18381 2.01689,-0.45328 3.05845,-0.55012 1.12637,0.02 2.20093,-0.24359 3.3035,-0.41424 0.96149,-0.18034 1.93712,-0.22757 2.91265,-0.2506 0.84368,0.0144 1.659,0.32528 2.49699,0.45354 0.68561,-0.0342 1.24252,0.25427 1.87238,0.45378 0.67384,0.20101 1.231,0.68263 1.74665,1.14491 0.44961,0.55798 1.10569,0.87382 1.60922,1.35688 0.38895,0.43825 0.63126,1.01122 0.86537,1.54725 0.1816,0.42314 0.47891,0.78705 0.73415,1.17523 0.39598,0.5631 0.64739,1.22291 0.886,1.86532 0.23582,0.64714 0.50661,1.28666 0.80321,1.90896 0.19559,0.52272 0.51927,0.93288 0.82458,1.38203 0.28238,0.49352 0.65896,0.91926 1.03616,1.34079 0.45932,0.46619 1.05417,0.76526 1.56406,1.1792 0.51933,0.34909 1.05708,0.73654 1.63601,0.98522 0.71826,0.24336 1.5205,0.20828 2.27399,0.22483 1.10113,0.0151 2.20232,0.001 3.30347,0.009 1.29166,0.12654 2.5341,-0.14603 3.80393,-0.29871 1.53627,-0.17001 3.02698,-0.60548 4.50366,-1.04538 1.54514,-0.47922 3.04521,-1.09057 4.56976,-1.63076 1.63413,-0.65005 3.25504,-1.37312 4.82328,-2.17405 1.68198,-0.80277 3.31949,-1.69906 5.00204,-2.50021 0.26985,-0.12654 0.54259,-0.24708 0.80954,-0.37962 0.28831,-0.14315 0.57138,-0.29662 0.85584,-0.44726 0.26792,-0.14188 1.06389,-0.5818 0.80129,-0.4303 -11.11381,6.41174 -7.1615,4.19673 -4.78437,2.61951 3.92031,-2.61987 16.84712,-9.53905 2.61689,-1.57286 -0.19023,0.10649 0.36048,-0.24532 0.53816,-0.37165 0.18857,-0.13407 0.37365,-0.27299 0.56048,-0.40949 3.22186,-2.30927 6.71186,-4.23616 10.22252,-6.06782 2.75228,-1.43067 0.85168,-0.45215 -6.01895,3.4866 -0.14613,0.0838 0.29125,-0.16934 0.435,-0.25712 0.39789,-0.24295 0.76885,-0.50975 1.14063,-0.79015 0.3886,-0.32267 0.20599,-0.16663 0.54907,-0.46667 0,0 7.669,-3.13018 7.669,-3.13018 l 0,0 c -0.35053,0.32518 -0.16563,0.15531 -0.55523,0.50903 -2.79815,2.50809 -6.43648,3.90476 -9.62866,5.80841 -2.79845,1.56289 -0.28786,0.16448 5.96198,-3.45964 0.18452,-0.107 -0.37383,0.20568 -0.55772,0.31377 -0.15735,0.0925 -0.92935,0.57359 -1.06485,0.66451 -0.17343,0.11638 -0.34012,0.24251 -0.51018,0.36376 -0.37002,0.26678 -0.70273,0.58775 -1.0943,0.82175 -2.5368,1.51596 -5.09897,2.98909 -7.6536,4.47481 -0.21367,0.12426 -0.86424,0.48003 -0.65103,0.35499 2.09723,-1.22997 4.19471,-2.45964 6.30336,-3.66992 0.21894,-0.12566 -0.42213,0.27697 -0.63319,0.41546 -3.75269,2.47986 -7.62769,4.79417 -11.69545,6.71973 -1.66265,0.84436 -3.33205,1.67318 -5.00286,2.50123 -1.60476,0.76182 -3.21698,1.52598 -4.89455,2.11481 -1.52128,0.56021 -3.0348,1.15048 -4.59808,1.58597 -1.51079,0.42668 -3.03779,0.80611 -4.60294,0.97024 -1.2873,0.19784 -2.57295,0.26029 -3.87586,0.21454 -1.11295,0.0121 -2.22665,0.0141 -3.33921,-0.0198 -0.85661,-0.0391 -1.74226,-0.0745 -2.5082,-0.50531 -0.58723,-0.34333 -1.18577,-0.67919 -1.71111,-1.1144 -0.56783,-0.409 -1.18948,-0.76134 -1.64236,-1.30647 -0.40528,-0.44274 -0.80161,-0.90028 -1.10873,-1.41834 -0.34793,-0.47651 -0.63833,-0.95398 -0.8711,-1.49927 -0.3265,-0.63923 -0.58506,-1.32485 -0.83929,-1.99399 -0.20697,-0.582 -0.45358,-1.16774 -0.80567,-1.677 -0.29107,-0.42052 -0.62215,-0.83919 -0.80815,-1.31431 -0.17795,-0.42593 -0.37576,-0.8848 -0.67796,-1.23035 -0.55217,-0.42686 -1.08925,-0.86225 -1.58913,-1.35188 -0.48295,-0.38553 -0.97682,-0.72672 -1.58679,-0.87733 -0.58404,-0.21139 -1.18386,-0.24808 -1.79329,-0.3606 -0.78724,-0.16646 -1.56843,-0.40183 -2.38253,-0.31318 -0.94882,0.0496 -1.89312,0.14719 -2.82788,0.32249 -1.10282,0.20564 -2.2111,0.28011 -3.32607,0.39047 -1.02122,0.17217 -2.02066,0.44142 -3.04665,0.58717 -1.02676,0.24398 -2.03467,0.55775 -3.06304,0.79607 -1.08903,0.34352 -2.19415,0.66172 -3.20842,1.19704 -0.85699,0.41127 -1.73149,0.79285 -2.55445,1.27011 2.22741,-1.29754 4.44768,-2.60741 6.68223,-3.89263 0.13308,-0.0765 -0.25059,0.17743 -0.37622,0.26567 -0.40249,0.28268 -0.81759,0.52085 -1.24264,0.76752 -2.47215,1.43471 -4.94413,2.8697 -7.4162,4.30454 -2.52315,1.30364 -5.73637,3.32898 5.97805,-3.51019 0.1938,-0.11315 -0.41395,0.18379 -0.59239,0.31987 -0.10185,0.0777 -0.18176,0.1805 -0.27264,0.27076 -0.64141,0.64372 -1.28694,1.28333 -1.93182,1.92357 -0.95116,0.94849 -1.90891,1.89048 -2.84656,2.85241 0,0 -7.63008,3.16048 -7.63008,3.16048 z"
       inkscape:connector-curvature="0"
       inkscape:export-filename="/tmp/bt.png"
       inkscape:export-xdpi="27.1"
       inkscape:export-ydpi="27.1" />
    <path
       style="fill:#2b0000;fill-opacity:1;stroke:#000000;stroke-width:1.39999998;stroke-miterlimit:4;stroke-dasharray:none;stroke-dashoffset:0;stroke-opacity:1"
       id="path4154"
       d="m 190.35085,157.98499 c -1.07964,0.32073 -2.16359,0.61036 -3.26666,0.83739 -0.34588,0.0665 -0.18598,0.0373 -0.47949,0.0889 0,0 6.63092,-5.00456 6.63092,-5.00456 l 0,0 c 0.26891,-0.052 0.12167,-0.0229 0.44156,-0.0879 1.08572,-0.2367 2.15025,-0.55628 3.21551,-0.87076 0,0 -6.54184,5.0369 -6.54184,5.0369 z"
       inkscape:connector-curvature="0"
       inkscape:export-filename="/tmp/bt.png"
       inkscape:export-xdpi="27.1"
       inkscape:export-ydpi="27.1" />
    <path
       style="fill:#2b0000;fill-opacity:1;stroke:#000000;stroke-width:1.39999998;stroke-miterlimit:4;stroke-dasharray:none;stroke-dashoffset:0;stroke-opacity:1"
       id="path4156"
       d="m 225.9765,141.40776 c 0.29839,-0.31304 -1.66811,0.86998 -1.25986,0.63619 2.15318,-1.23304 8.60559,-4.94453 6.4551,-3.70682 -2.88995,1.66331 -5.52219,3.34382 -8.42703,4.7809 -3.1377,1.56133 9.31044,-5.57896 6.16222,-3.54455 0,0 -7.71769,3.06253 -7.71769,3.06253 l 0,0 c 2.38191,-1.98188 5.24774,-3.29401 8.01135,-4.68715 0.26656,-0.13808 1.05532,-0.57255 0.79583,-0.4216 -2.16363,1.25868 -8.68282,4.98541 -6.49919,3.76175 2.99285,-1.67712 5.79711,-3.6645 8.95374,-4.99811 0,0 -6.47447,5.11686 -6.47447,5.11686 z"
       inkscape:connector-curvature="0"
       inkscape:export-filename="/tmp/bt.png"
       inkscape:export-xdpi="27.1"
       inkscape:export-ydpi="27.1" />
    <rect
       style="fill:#2b0000;fill-opacity:0;stroke:none;stroke-width:1.39999998;stroke-linejoin:miter;stroke-miterlimit:4;stroke-dasharray:none;stroke-dashoffset:0;stroke-opacity:1"
       id="rect4158"
       width="119.56676"
       height="98.990143"
       x="154.04646"
       y="94.715935"
       ry="13.787336"
       inkscape:export-filename="/tmp/bt.png"
       inkscape:export-xdpi="27.1"
       inkscape:export-ydpi="27.1" />
  </g>
</svg>
